<svg width="352" height="263" viewBox="0 0 352 263" fill="none" xmlns="http://www.w3.org/2000/svg">
<g clip-path="url(#clip0)">
<path d="M257.029 249.89H250.025L246.692 222.884H257.029V249.89Z" fill="#9E616A"/>
<path d="M260.726 262.021H255.703L254.807 257.28L252.51 262.021H239.189C238.55 262.021 237.929 261.817 237.414 261.438C236.9 261.06 236.52 260.527 236.33 259.918C236.14 259.309 236.15 258.654 236.358 258.051C236.566 257.448 236.962 256.926 237.487 256.564L248.125 249.219V244.427L259.315 245.094L260.726 262.021Z" fill="#2F2E41"/>
<path d="M298.639 241.054L293.019 245.232L274.224 225.549L282.519 219.383L298.639 241.054Z" fill="#9E616A"/>
<path d="M308.846 248.583L304.816 251.579L301.267 248.31L302.254 253.484L291.564 261.43C291.052 261.811 290.431 262.019 289.792 262.022C289.154 262.025 288.531 261.824 288.015 261.449C287.499 261.073 287.116 260.542 286.923 259.934C286.73 259.325 286.736 258.671 286.941 258.066L291.094 245.827L288.233 241.981L297.611 235.842L308.846 248.583Z" fill="#2F2E41"/>
<path d="M265.183 110.554C265.183 110.554 278.472 122.031 272.341 154.749L264.855 186.808L289.267 227.293L281.483 236.759L249.748 192.938L238.248 165.972L235.021 117.976L265.183 110.554Z" fill="#2F2E41"/>
<path d="M244.586 173.656L243.787 186.031L246.233 238.763L257.743 236.759L259.942 199.215L244.586 173.656Z" fill="#2F2E41"/>
<path d="M96.8823 256.239L103.146 256.239L106.125 232.088L96.8815 232.089L96.8823 256.239Z" fill="#FFB6B6"/>
<path d="M95.2847 254.195L97.0476 254.195L103.93 251.397L107.619 254.194H107.62C109.705 254.195 111.704 255.023 113.178 256.496C114.652 257.97 115.48 259.968 115.481 262.052V262.308L95.285 262.309L95.2847 254.195Z" fill="#2F2E41"/>
<path d="M121.154 252.294L127.263 253.672L135.492 230.771L126.475 228.736L121.154 252.294Z" fill="#FFB6B6"/>
<path d="M120.046 249.948L121.766 250.336L129.096 249.122L132.078 252.663L132.078 252.664C134.112 253.123 135.88 254.371 136.993 256.133C138.106 257.895 138.474 260.027 138.014 262.06L137.958 262.309L118.259 257.862L120.046 249.948Z" fill="#2F2E41"/>
<path d="M88.9496 108.594C86.013 117.448 86.3235 127.059 89.6554 137.373L91.0798 195.447C91.0798 195.447 88.9576 233.531 95.8054 246.933H105.737L110.654 191.97L111.271 155.078L132.563 186.202L119.001 246.034L131.224 247.127L153.231 182.195L126.079 119.199L88.9496 108.594Z" fill="#2F2E41"/>
<path d="M203.478 83.3754C211.075 76.5324 222.373 73.0917 231.851 76.9287C222.129 82.3245 214.63 90.9841 210.68 101.375C209.171 105.388 207.911 110.009 204.2 112.157C201.89 113.494 199.018 113.559 196.429 112.914C193.839 112.269 191.466 110.975 189.125 109.694L188.459 109.679C191.449 99.9038 195.882 90.2183 203.478 83.3754Z" fill="#E6E6E6"/>
<path d="M231.798 77.1365C223.404 78.2209 215.565 81.9217 209.395 87.7132C208.045 88.9365 206.896 90.3648 205.99 91.9458C205.158 93.5143 204.761 95.277 204.84 97.0507C204.881 98.7061 205.115 100.395 204.753 102.031C204.555 102.866 204.183 103.65 203.661 104.331C203.139 105.012 202.479 105.575 201.724 105.983C199.869 107.049 197.742 107.385 195.65 107.641C193.327 107.926 190.911 108.184 188.9 109.487C188.657 109.644 188.426 109.257 188.669 109.1C192.167 106.834 196.593 107.659 200.354 106.146C202.109 105.441 203.662 104.202 204.211 102.33C204.692 100.692 204.452 98.9509 204.396 97.2752C204.293 95.546 204.615 93.8178 205.334 92.2417C206.156 90.6198 207.249 89.1496 208.564 87.894C211.481 85.02 214.831 82.6223 218.492 80.7887C222.66 78.6729 227.158 77.2853 231.794 76.6859C232.081 76.649 232.083 77.0998 231.798 77.1365H231.798Z" fill="white"/>
<path d="M211.272 85.7315C210.441 84.5647 210.051 83.1404 210.173 81.7131C210.295 80.2857 210.921 78.9481 211.938 77.9393C212.145 77.7358 212.471 78.0472 212.264 78.2509C211.315 79.1886 210.732 80.4346 210.621 81.764C210.51 83.0934 210.879 84.4187 211.659 85.5006C211.829 85.7359 211.441 85.9655 211.272 85.7315V85.7315Z" fill="white"/>
<path d="M204.709 96.2142C207.594 96.7251 210.565 96.1303 213.03 94.5486C213.274 94.3917 213.505 94.7787 213.261 94.9354C210.693 96.5766 207.599 97.1892 204.599 96.651C204.313 96.5995 204.425 96.1629 204.709 96.2142V96.2142Z" fill="white"/>
<path d="M222.696 79.2691C222.924 79.7876 223.277 80.2414 223.723 80.5899C224.17 80.9383 224.696 81.1705 225.254 81.2655C225.541 81.3133 225.428 81.7499 225.144 81.7023C224.527 81.5945 223.947 81.3374 223.453 80.9535C222.959 80.5696 222.566 80.0706 222.309 79.5001C222.281 79.4483 222.273 79.3876 222.287 79.3302C222.302 79.2729 222.338 79.2231 222.387 79.1912C222.439 79.1609 222.5 79.152 222.558 79.1666C222.616 79.1812 222.666 79.2181 222.696 79.2691V79.2691Z" fill="white"/>
<path d="M242.287 109.929C242.108 109.904 241.928 109.879 241.745 109.857C239.327 109.536 236.887 109.412 234.449 109.487C234.261 109.489 234.07 109.495 233.881 109.503C228.009 109.744 222.233 111.074 216.847 113.423C214.704 114.36 212.636 115.458 210.66 116.709C207.931 118.436 205.11 120.526 202.06 121.23C201.742 121.307 201.42 121.364 201.096 121.402L188.493 110.492C188.476 110.453 188.458 110.417 188.441 110.378L187.918 109.965C188.015 109.893 188.118 109.821 188.215 109.75C188.272 109.708 188.331 109.669 188.387 109.627C188.426 109.6 188.464 109.573 188.497 109.546C188.51 109.537 188.523 109.528 188.533 109.522C188.566 109.495 188.6 109.474 188.631 109.45C189.203 109.045 189.779 108.643 190.359 108.245C190.361 108.242 190.361 108.242 190.367 108.242C194.756 105.164 199.495 102.617 204.484 100.655C204.634 100.599 204.786 100.539 204.942 100.488C207.189 99.6525 209.5 99.0022 211.853 98.5435C213.142 98.2964 214.443 98.1148 215.751 97.9992C219.13 97.7072 222.534 97.9483 225.838 98.7137C232.425 100.241 238.45 103.856 242.019 109.495C242.11 109.64 242.199 109.781 242.287 109.929Z" fill="#E6E6E6"/>
<path d="M242.121 110.064C234.765 105.878 226.278 104.115 217.863 105.025C216.048 105.189 214.27 105.638 212.595 106.355C210.986 107.107 209.608 108.275 208.603 109.739C207.639 111.086 206.808 112.575 205.534 113.663C204.873 114.211 204.104 114.613 203.277 114.842C202.45 115.072 201.583 115.124 200.735 114.995C198.612 114.73 196.711 113.718 194.887 112.664C192.861 111.493 190.775 110.245 188.386 110.075C188.096 110.054 188.145 109.606 188.434 109.627C192.592 109.923 195.629 113.245 199.542 114.301C201.369 114.794 203.354 114.74 204.921 113.576C206.291 112.558 207.148 111.023 208.113 109.651C209.072 108.209 210.37 107.023 211.893 106.197C213.527 105.397 215.284 104.88 217.091 104.669C221.15 104.13 225.269 104.232 229.297 104.972C233.899 105.791 238.327 107.39 242.389 109.702C242.64 109.845 242.37 110.206 242.121 110.064L242.121 110.064Z" fill="white"/>
<path d="M220.555 104.573C220.594 103.141 221.141 101.769 222.098 100.703C223.055 99.6365 224.36 98.945 225.78 98.7519C226.068 98.7138 226.14 99.1585 225.853 99.1967C224.53 99.3741 223.314 100.018 222.425 101.013C221.536 102.008 221.032 103.287 221.003 104.621C220.997 104.911 220.549 104.861 220.555 104.573Z" fill="white"/>
<path d="M209.002 108.992C210.997 111.136 213.728 112.45 216.649 112.671C216.938 112.692 216.889 113.14 216.6 113.119C213.561 112.883 210.722 111.511 208.651 109.275C208.453 109.062 208.806 108.78 209.002 108.992Z" fill="white"/>
<path d="M233.569 106.289C233.439 106.84 233.447 107.415 233.594 107.961C233.74 108.508 234.02 109.01 234.409 109.422C234.609 109.633 234.256 109.914 234.058 109.705C233.631 109.248 233.322 108.693 233.159 108.089C232.995 107.485 232.982 106.85 233.121 106.24C233.129 106.182 233.16 106.128 233.206 106.091C233.252 106.054 233.31 106.036 233.369 106.041C233.429 106.047 233.483 106.077 233.52 106.124C233.558 106.17 233.575 106.229 233.569 106.289V106.289Z" fill="white"/>
<path d="M20.9205 255.801C20.3289 258.02 18.7743 259.867 16.8974 261.213C16.5914 261.434 16.2772 261.638 15.959 261.829C15.861 261.886 15.7631 261.948 15.6611 262.001C15.5509 262.066 15.4408 262.127 15.3306 262.184H6.50514C6.34602 261.862 6.19097 261.536 6.03592 261.213C2.25358 253.268 -0.402627 244.694 0.0502746 235.961C0.229957 232.574 0.94182 229.236 2.15974 226.07C4.58337 219.76 9.00631 214.298 15.0899 211.549C15.2408 211.48 15.4 211.41 15.555 211.345C15.5061 211.521 15.4571 211.692 15.4081 211.867C14.7555 214.218 14.2943 216.617 14.029 219.042C14.0045 219.23 13.9841 219.417 13.9678 219.609C13.3882 225.457 13.9029 231.362 15.4857 237.022C15.4897 237.034 15.4938 237.05 15.4979 237.062C15.8447 238.315 16.2473 239.548 16.7056 240.762C17.0647 241.72 17.4523 242.667 17.8767 243.597C19.6475 247.5 22.0221 251.661 20.9205 255.801Z" fill="#E6E6E6"/>
<path d="M15.6652 211.529C15.5795 211.643 15.4938 211.753 15.4081 211.867C13.616 214.241 12.0942 216.808 10.871 219.519C10.8057 219.654 10.7445 219.788 10.6914 219.927C9.01527 223.713 7.93881 227.737 7.5007 231.854C7.49596 231.882 7.49324 231.911 7.49255 231.939C7.39054 232.902 7.32934 233.873 7.30486 234.844C7.21413 236.663 7.41103 238.486 7.88832 240.244C8.32352 241.68 9.08613 242.995 10.1161 244.086C10.2181 244.196 10.3201 244.307 10.4303 244.413C10.5119 244.498 10.6017 244.584 10.6873 244.665C11.5115 245.453 12.4133 246.183 13.1885 247.027C13.5438 247.406 13.8647 247.815 14.1473 248.251C14.5984 248.981 14.8898 249.798 15.0023 250.649C15.1148 251.499 15.0459 252.364 14.8002 253.186C14.2453 255.25 12.9763 256.992 11.6788 258.652C11.0301 259.484 10.3609 260.324 9.78153 261.213C9.56938 261.532 9.37352 261.854 9.19402 262.184H8.67991C8.85127 261.854 9.03897 261.532 9.24298 261.213C10.7322 258.868 12.8499 256.853 13.9474 254.271C14.69 252.53 14.9145 250.555 13.976 248.846C13.701 248.349 13.3682 247.887 12.9845 247.468C12.2378 246.623 11.3443 245.901 10.5323 245.139C10.3283 244.947 10.1284 244.751 9.93661 244.547C8.91991 243.515 8.13536 242.277 7.63538 240.917C7.06916 239.19 6.80148 237.379 6.84382 235.561C6.84382 234.403 6.90502 233.236 7.01927 232.078C7.03151 231.931 7.04783 231.78 7.06415 231.629C7.89857 224.34 10.6697 217.406 15.0899 211.549C15.1715 211.435 15.2572 211.325 15.3429 211.215C15.5183 210.986 15.8406 211.304 15.6652 211.529Z" fill="white"/>
<path d="M7.2288 232.117C5.81554 231.879 4.53268 231.148 3.60931 230.052C2.68594 228.956 2.1822 227.568 2.18804 226.136C2.18882 226.077 2.21225 226.022 2.2534 225.98C2.29455 225.939 2.3502 225.915 2.40862 225.914C2.46705 225.912 2.52369 225.934 2.56661 225.973C2.60953 226.013 2.63538 226.068 2.63872 226.126C2.63082 227.46 3.10018 228.753 3.9621 229.771C4.82403 230.79 6.02173 231.467 7.33904 231.68C7.62526 231.727 7.51337 232.163 7.2288 232.117V232.117Z" fill="white"/>
<path d="M10.0028 244.168C12.4039 242.491 14.0841 239.97 14.7086 237.109C14.7702 236.825 15.2071 236.936 15.1456 237.219C14.4902 240.195 12.7363 242.815 10.2339 244.555C9.99522 244.721 9.76549 244.333 10.0028 244.168L10.0028 244.168Z" fill="white"/>
<path d="M10.736 219.472C11.2637 219.677 11.8342 219.749 12.3964 219.68C12.9585 219.61 13.4947 219.403 13.9567 219.075C14.1931 218.906 14.4226 219.294 14.1877 219.462C13.6756 219.821 13.0832 220.05 12.4623 220.128C11.8413 220.206 11.2108 220.13 10.6258 219.908C10.5689 219.892 10.5203 219.855 10.49 219.804C10.4596 219.753 10.4498 219.693 10.4624 219.635C10.4773 219.577 10.5144 219.527 10.5656 219.497C10.6169 219.466 10.6781 219.457 10.736 219.472V219.472Z" fill="white"/>
<path d="M46.2748 227.302C46.132 227.412 45.9851 227.522 45.8423 227.636C43.9052 229.118 42.0917 230.755 40.4197 232.531C40.2892 232.665 40.1586 232.804 40.0321 232.943L40.028 232.947C36.0637 237.249 32.9291 242.247 30.7823 247.688L30.7701 247.725C30.766 247.737 30.7619 247.745 30.7578 247.757C29.9069 249.935 29.2208 252.174 28.7055 254.455C28.2077 256.682 27.7997 259.068 27.0204 261.213C26.902 261.544 26.7715 261.87 26.6327 262.184H8.49219C8.55339 261.862 8.61867 261.536 8.68396 261.213C9.60676 256.487 11.049 251.877 12.9845 247.468C13.0498 247.321 13.115 247.174 13.1885 247.027C14.1877 244.848 15.3626 242.754 16.7015 240.766C16.7015 240.766 16.7016 240.765 16.7018 240.764C16.702 240.764 16.7023 240.764 16.7027 240.763C16.7031 240.763 16.7036 240.762 16.7041 240.762C16.7046 240.762 16.7051 240.762 16.7056 240.762C17.4409 239.677 18.2307 238.63 19.0721 237.625C21.2543 235.03 23.832 232.794 26.7103 231.001C26.7266 230.989 26.747 230.981 26.7633 230.969C32.4919 227.416 39.2814 225.723 45.773 227.187H45.777C45.9443 227.224 46.1075 227.261 46.2748 227.302Z" fill="#E6E6E6"/>
<path d="M46.2545 227.518C46.1157 227.555 45.977 227.595 45.8424 227.636C42.9828 228.453 40.2227 229.584 37.6126 231.009C37.4821 231.079 37.3515 231.152 37.2209 231.226C33.6139 233.238 30.3396 235.796 27.5141 238.808C27.5119 238.81 27.5105 238.813 27.51 238.816C27.4774 238.849 27.4407 238.886 27.4121 238.918C26.7593 239.62 26.1309 240.35 25.5352 241.101C24.37 242.5 23.431 244.073 22.7525 245.763C22.2341 247.171 22.0511 248.681 22.218 250.172C22.2303 250.323 22.2507 250.47 22.2711 250.621C22.2874 250.739 22.3037 250.857 22.3241 250.98C22.5934 252.615 23.0585 254.255 22.928 255.923C22.8485 256.778 22.589 257.606 22.1663 258.354C21.7437 259.101 21.1675 259.75 20.4758 260.259C20.0056 260.622 19.503 260.942 18.9743 261.213C18.2184 261.603 17.4308 261.928 16.62 262.184H15.0165C15.2327 262.123 15.4449 262.062 15.6612 262.001C16.4285 261.784 17.182 261.521 17.9175 261.213C18.3376 261.038 18.7465 260.836 19.1416 260.61C20.7818 259.668 22.1487 258.224 22.4343 256.294C22.6832 254.606 22.2017 252.917 21.9161 251.265C21.8671 250.98 21.8223 250.698 21.7978 250.417C21.603 248.986 21.7213 247.53 22.1446 246.15C22.7317 244.428 23.6093 242.82 24.7396 241.394C25.4388 240.466 26.1851 239.574 26.9755 238.723C27.0735 238.612 27.1755 238.502 27.2816 238.392C30.1665 235.358 33.4975 232.782 37.1597 230.752H37.1638C39.8868 229.237 42.7757 228.041 45.773 227.187H45.7771C45.9117 227.147 46.0505 227.106 46.1851 227.069C46.4666 226.996 46.5319 227.44 46.2545 227.518Z" fill="white"/>
<path d="M27.1201 238.877C26.1346 237.837 25.551 236.481 25.4736 235.05C25.3961 233.62 25.8298 232.208 26.6973 231.068C26.8736 230.838 27.2396 231.101 27.0631 231.331C26.2533 232.392 25.8495 233.707 25.9243 235.039C25.9991 236.37 26.5478 237.632 27.4712 238.595C27.6716 238.804 27.3193 239.086 27.1201 238.877H27.1201Z" fill="white"/>
<path d="M22.0768 250.169C25.0044 250.275 27.8642 249.274 30.086 247.365C30.3059 247.176 30.5882 247.527 30.3685 247.716C28.0527 249.698 25.0746 250.734 22.0283 250.617C21.738 250.606 21.7881 250.158 22.0768 250.169V250.169Z" fill="white"/>
<path d="M37.5361 230.892C37.8335 231.374 38.246 231.774 38.7365 232.057C39.227 232.34 39.7802 232.497 40.3463 232.514C40.6366 232.521 40.5862 232.969 40.2978 232.962C39.6724 232.94 39.0617 232.766 38.519 232.455C37.9764 232.143 37.5184 231.703 37.1849 231.174C37.1493 231.127 37.133 231.068 37.1394 231.009C37.1458 230.95 37.1743 230.896 37.2192 230.857C37.2659 230.82 37.3254 230.803 37.3847 230.809C37.444 230.816 37.4984 230.845 37.5361 230.892V230.892Z" fill="white"/>
<path d="M186.213 70.6174C185.794 71.168 185.26 71.6202 184.647 71.942C184.035 72.2638 183.359 72.4475 182.668 72.4801C181.977 72.5126 181.287 72.3933 180.647 72.1305C180.007 71.8677 179.433 71.4678 178.964 70.959L163.541 77.6647L165.043 69.0577L179.459 64.0094C180.366 63.2789 181.51 62.9064 182.673 62.9627C183.837 63.0189 184.939 63.4998 185.772 64.3143C186.604 65.1289 187.109 66.2204 187.191 67.3821C187.272 68.5438 186.924 69.6949 186.213 70.6174V70.6174Z" fill="#FFB8B8"/>
<path d="M175.921 73.3048L140.098 89.2566L140.021 89.2291L99.1914 74.6843C96.1502 73.0954 93.8316 70.4044 92.7103 67.1622C91.5891 63.9201 91.75 60.3721 93.1602 57.2448V57.2448C93.9419 55.5169 95.0807 53.9741 96.5018 52.7179C97.9229 51.4617 99.5941 50.5207 101.405 49.9567C103.216 49.3927 105.126 49.2185 107.01 49.4457C108.893 49.6729 110.707 50.2962 112.332 51.2747L142.717 69.5722L172.18 65.7548L175.921 73.3048Z" fill="#E6E6E6"/>
<path d="M352 262.515C352 262.578 351.988 262.642 351.963 262.701C351.939 262.76 351.903 262.813 351.858 262.858C351.813 262.903 351.759 262.939 351.7 262.963C351.641 262.988 351.578 263 351.514 263H0.499088C0.370314 263 0.246819 262.949 0.155762 262.858C0.0647045 262.767 0.0135498 262.643 0.0135498 262.515C0.0135498 262.386 0.0647045 262.262 0.155762 262.171C0.246819 262.08 0.370314 262.029 0.499088 262.029H351.514C351.578 262.029 351.641 262.041 351.7 262.066C351.759 262.09 351.813 262.126 351.858 262.171C351.903 262.216 351.939 262.27 351.963 262.329C351.988 262.388 352 262.451 352 262.515Z" fill="#CCCCCC"/>
<path d="M127.85 121.06L91.7382 115.285C90.7911 114.982 89.9208 114.477 89.1872 113.806C88.4535 113.135 87.8739 112.313 87.488 111.397C87.1021 110.48 86.9191 109.492 86.9516 108.498C86.984 107.504 87.2312 106.529 87.6761 105.64L89.3138 102.366L88.6777 67.9617C88.601 63.4865 89.7046 59.0701 91.8775 55.1568C94.0504 51.2434 97.2159 47.9711 101.056 45.6691L104.577 43.5641L106.357 39.0461L122.767 39.4462L122.815 45.3717L128.692 54.7402L128.692 54.7791L128.323 105.771L126.704 111.033L129.153 117.154L127.85 121.06Z" fill="#E6E6E6"/>
<path d="M116.065 33.428C124.3 33.428 130.976 26.7545 130.976 18.5222C130.976 10.2899 124.3 3.61627 116.065 3.61627C107.83 3.61627 101.154 10.2899 101.154 18.5222C101.154 26.7545 107.83 33.428 116.065 33.428Z" fill="#FFB8B8"/>
<path d="M100.538 21.7716C100.094 19.8986 100.298 17.263 100.549 15.3771C101.208 10.433 103.955 5.73275 108.127 2.94862C108.919 2.34787 109.859 1.97436 110.847 1.86835C111.834 1.82715 112.904 2.35544 113.207 3.29554C113.456 2.67507 113.829 2.11213 114.304 1.64147C114.778 1.17081 115.345 0.802416 115.967 0.559029C117.218 0.0799066 118.564 -0.101286 119.897 0.0298136C122.481 0.242747 124.959 1.15108 127.069 2.65841C129.178 4.16575 130.84 6.21585 131.878 8.59115C132.276 9.53696 133.388 6.0434 133.893 6.93705C134.357 7.86596 135.166 8.57653 136.147 8.9167C137.136 9.19251 137.537 13.2649 137.926 12.3153C138.228 13.0171 138.347 13.7838 138.273 14.5442C138.199 15.3045 137.933 16.0336 137.501 16.6636C137.069 17.2937 136.484 17.8042 135.802 18.1476C135.119 18.4909 134.361 18.656 133.597 18.6275C132.591 18.5898 131.628 18.2198 130.634 18.0605C127.078 17.4909 123.306 20.0686 122.546 23.5876C122.273 22.57 121.839 21.6029 121.258 20.7238C120.963 20.2866 120.568 19.9261 120.106 19.6722C119.644 19.4183 119.128 19.2784 118.601 19.2641C117.589 19.302 116.7 19.9632 116.043 20.7337C115.387 21.5043 114.894 22.4032 114.232 23.1696C112.292 25.4183 109.668 30.6624 106.903 30.2799C104.72 29.9781 101.146 24.3289 100.538 21.7716Z" fill="#2F2E41"/>
<path d="M206.199 87.5084C206.303 86.8288 206.163 86.1343 205.804 85.5479C205.445 84.9615 204.89 84.5212 204.237 84.305L164.083 70.9356C163.698 70.8069 163.29 70.7601 162.886 70.7982L152.821 71.7497L147.046 72.2973L136.389 73.3041C135.746 73.3656 135.141 73.6389 134.67 74.081C134.198 74.5232 133.887 75.1092 133.785 75.7472L128.374 109.536C128.271 110.195 128.397 110.869 128.73 111.447C129.062 112.025 129.582 112.473 130.204 112.716L170.777 128.372C170.968 128.446 171.166 128.499 171.367 128.53C171.661 128.578 171.961 128.58 172.255 128.537L198.473 124.653C199.091 124.563 199.664 124.277 200.107 123.836C200.549 123.395 200.838 122.823 200.93 122.206L206.199 87.5084Z" fill="white"/>
<path d="M131.123 110.335L171.697 125.99C171.756 126.014 171.82 126.021 171.883 126.012L198.097 122.128C198.175 122.118 198.247 122.082 198.303 122.027C198.358 121.971 198.394 121.899 198.405 121.822L203.677 87.1241C203.689 87.0394 203.671 86.9531 203.626 86.8801C203.582 86.8071 203.513 86.7518 203.432 86.7238L203.162 86.6324L163.275 73.3574C163.257 73.3509 163.238 73.3464 163.219 73.3439C163.188 73.3382 163.157 73.3365 163.125 73.339L138.577 75.6612L136.629 75.8439C136.549 75.8524 136.474 75.8868 136.416 75.9419C136.357 75.997 136.318 76.0697 136.305 76.1489L130.895 109.936C130.882 110.019 130.897 110.103 130.939 110.176C130.98 110.248 131.045 110.304 131.123 110.335V110.335Z" fill="white"/>
<path d="M138.577 75.6612L163.125 73.339C163.157 73.3365 163.188 73.3382 163.219 73.3439C163.238 73.3464 163.257 73.3509 163.275 73.3574L203.162 86.6324L192.641 87.7458L188.703 88.1605L177.499 89.3439C177.466 89.3455 177.433 89.3451 177.401 89.3427C177.381 89.3367 177.361 89.3307 177.337 89.3243L138.577 75.6612Z" fill="#2F2E41"/>
<path d="M130.203 112.718L170.776 128.373C170.967 128.447 171.166 128.499 171.368 128.528C171.662 128.577 171.962 128.58 172.257 128.539L198.471 124.655C199.089 124.565 199.663 124.278 200.106 123.837C200.549 123.396 200.838 122.824 200.93 122.206L206.198 87.5083C206.276 86.9968 206.217 86.4738 206.027 85.9923C206 85.9284 205.974 85.8643 205.943 85.804C205.734 85.3645 205.416 84.9857 205.019 84.7037C204.78 84.5322 204.517 84.3979 204.237 84.3054L204.19 84.2885L164.085 70.9353C163.921 70.883 163.754 70.8424 163.584 70.8137C163.352 70.7809 163.117 70.7763 162.884 70.8002L152.821 71.7484L147.047 72.299L136.388 73.3051C135.952 73.3457 135.531 73.4849 135.157 73.7119C135.128 73.7259 135.1 73.7424 135.074 73.7613C135.055 73.7735 135.038 73.7868 135.021 73.8014C134.694 74.0245 134.416 74.3118 134.204 74.6459C133.991 74.9799 133.849 75.3537 133.786 75.7444L128.372 109.535C128.269 110.195 128.395 110.87 128.728 111.448C129.061 112.027 129.581 112.474 130.203 112.718V112.718ZM134.504 75.8622C134.57 75.4572 134.75 75.0793 135.022 74.7726C135.105 74.6739 135.197 74.5839 135.298 74.5039C135.573 74.2814 135.899 74.1297 136.246 74.0618C136.315 74.0477 136.384 74.0379 136.454 74.0325L154.401 72.3376L162.955 71.5239C163.013 71.5171 163.066 71.5181 163.119 71.5151C163.249 71.5124 163.378 71.522 163.506 71.5438C163.624 71.559 163.739 71.5865 163.851 71.6259L204.003 84.9959C204.035 85.0072 204.063 85.018 204.094 85.0292C204.459 85.165 204.78 85.3983 205.022 85.7037C205.213 85.9376 205.352 86.209 205.431 86.5004C205.51 86.7917 205.526 87.0965 205.479 87.3946L200.207 122.096C200.138 122.559 199.922 122.987 199.591 123.318C199.259 123.649 198.831 123.864 198.368 123.932L172.149 127.816C171.774 127.87 171.392 127.826 171.039 127.689L130.465 112.038C130 111.855 129.611 111.519 129.362 111.086C129.112 110.652 129.018 110.147 129.094 109.653L134.504 75.8622Z" fill="#3F3D56"/>
<path d="M134.934 73.9856C134.955 73.9241 134.993 73.8696 135.043 73.8281C135.06 73.8148 135.077 73.8028 135.096 73.7921C135.113 73.7855 135.13 73.7749 135.147 73.7683C135.228 73.7356 135.319 73.734 135.402 73.764L136.246 74.0618L177.503 88.6109L187.159 87.591L192.563 87.0213L203.999 85.8109L205.022 85.7037L205.221 85.6818C205.306 85.6739 205.392 85.6963 205.463 85.745C205.534 85.7937 205.586 85.8656 205.609 85.9483C205.615 85.9674 205.618 85.987 205.62 86.0067C205.628 86.0853 205.611 86.1644 205.571 86.2322C205.53 86.3 205.469 86.3529 205.395 86.3827C205.363 86.3962 205.329 86.4053 205.294 86.41L203.903 86.5557L192.641 87.7458L188.703 88.1605L177.499 89.3439C177.466 89.3456 177.433 89.3452 177.401 89.3427C177.381 89.3367 177.361 89.3307 177.337 89.3243L135.298 74.5039L135.155 74.4534C135.123 74.4427 135.092 74.4259 135.066 74.4039C135.002 74.3572 134.955 74.2915 134.931 74.2163C134.908 74.1411 134.908 74.0603 134.934 73.9856Z" fill="#3F3D56"/>
<path d="M171.479 128.634C171.384 128.619 171.299 128.567 171.242 128.49C171.185 128.412 171.161 128.315 171.176 128.22L177.099 88.9266C177.113 88.831 177.165 88.7451 177.243 88.6877C177.321 88.6303 177.418 88.6061 177.514 88.6205L177.517 88.621C177.612 88.6362 177.697 88.6883 177.754 88.7658C177.811 88.8434 177.835 88.9403 177.82 89.0353L171.897 128.329C171.883 128.424 171.831 128.51 171.753 128.568C171.675 128.625 171.578 128.649 171.482 128.635L171.479 128.634Z" fill="#3F3D56"/>
<path d="M186.493 126.142L182.553 126.557L187.161 87.59C187.161 87.59 192.422 86.6377 192.563 87.0195C192.65 87.2475 186.53 125.892 186.493 126.142Z" fill="#3F3D56"/>
<path d="M135.157 74.4529L135.051 92.2233L166.519 104.21L177.82 89.0353L135.157 74.4529Z" fill="#3F3D56"/>
<path d="M205.023 85.7043C204.76 85.3738 204.406 85.1276 204.004 84.996L163.853 71.6264C163.74 71.5885 163.624 71.5603 163.507 71.5421C163.379 71.5201 163.249 71.5104 163.119 71.5131L163.184 71.1063L163.586 70.8154L173.121 63.9144L204.963 73.6699L205.018 84.7038L205.023 85.7043Z" fill="#3F3D56"/>
<path d="M136.76 102.98C136.806 102.985 136.85 102.994 136.893 103.008L149.213 107.053C149.367 107.104 149.495 107.214 149.568 107.358C149.642 107.503 149.654 107.671 149.604 107.825C149.553 107.98 149.443 108.107 149.298 108.181C149.154 108.254 148.985 108.267 148.831 108.216L136.512 104.171C136.369 104.124 136.248 104.026 136.173 103.896C136.097 103.765 136.073 103.612 136.104 103.465C136.134 103.317 136.218 103.186 136.339 103.097C136.461 103.008 136.61 102.966 136.76 102.98H136.76Z" fill="white"/>
<path d="M186.466 177.527C189.171 177.527 191.363 175.336 191.363 172.633C191.363 169.929 189.171 167.738 186.466 167.738C183.762 167.738 181.57 169.929 181.57 172.633C181.57 175.336 183.762 177.527 186.466 177.527Z" fill="#F2F2F2"/>
<path d="M61.6123 195.474C64.3164 195.474 66.5085 193.283 66.5085 190.58C66.5085 187.876 64.3164 185.685 61.6123 185.685C58.9082 185.685 56.7161 187.876 56.7161 190.58C56.7161 193.283 58.9082 195.474 61.6123 195.474Z" fill="#F2F2F2"/>
<path d="M163.617 33.543C166.321 33.543 168.514 31.3516 168.514 28.6483C168.514 25.9451 166.321 23.7537 163.617 23.7537C160.913 23.7537 158.721 25.9451 158.721 28.6483C158.721 31.3516 160.913 33.543 163.617 33.543Z" fill="#F2F2F2"/>
<path d="M171.651 110.179C171.016 110.455 170.329 110.588 169.637 110.569C168.945 110.551 168.266 110.381 167.647 110.071C167.029 109.762 166.485 109.32 166.055 108.778C165.626 108.236 165.32 107.606 165.16 106.934L148.426 105.243L153.947 98.4699L168.991 101.113C170.14 100.92 171.32 101.154 172.307 101.772C173.295 102.389 174.021 103.348 174.349 104.465C174.677 105.583 174.583 106.782 174.086 107.835C173.588 108.888 172.722 109.722 171.651 110.179V110.179Z" fill="#FFB8B8"/>
<path d="M161.358 107.492L122.307 103.895L122.254 103.834L93.7532 71.1877C91.8776 68.3151 91.1714 64.8344 91.7792 61.4582C92.3871 58.082 94.2629 55.0658 97.0228 53.0272V53.0272C98.5498 51.9021 100.298 51.113 102.152 50.7119C104.006 50.3109 105.924 50.3069 107.78 50.7003C109.635 51.0937 111.387 51.8755 112.918 52.9943C114.45 54.1131 115.727 55.5435 116.666 57.1913L134.22 88.0049L161.788 99.0778L161.358 107.492Z" fill="#E6E6E6"/>
<path d="M259.374 44.7113C258.404 37.6002 257.188 29.9654 252.171 24.8321C250.579 23.2033 248.674 21.9136 246.57 21.0409C244.466 20.1681 242.207 19.7303 239.929 19.7539C237.651 19.7775 235.402 20.2619 233.316 21.178C231.231 22.0941 229.352 23.4229 227.794 25.0843C224.142 28.9791 222.529 34.4481 222.382 39.7845C222.234 45.121 223.423 50.3981 224.742 55.5712C231.722 55.7105 238.649 54.3474 245.056 51.5741C246.658 50.8791 248.234 50.0933 249.926 49.6626C251.618 49.232 252.825 50.3156 254.399 51.0712L255.263 49.4171C255.971 50.7331 258.161 50.343 258.956 49.0776C259.75 47.8122 259.576 46.1916 259.374 44.7113Z" fill="#2F2E41"/>
<path d="M231.708 84.4022L203.197 85.0118C202.759 84.2552 202.111 83.6421 201.331 83.2471C200.551 82.8522 199.673 82.6923 198.804 82.7871C197.934 82.8819 197.112 83.2272 196.435 83.781C195.759 84.3347 195.258 85.0731 194.993 85.9063C194.729 86.7395 194.713 87.6315 194.946 88.4738C195.18 89.3161 195.653 90.0724 196.309 90.6507C196.964 91.229 197.774 91.6043 198.639 91.731C199.504 91.8576 200.387 91.7302 201.182 91.3642C204.963 91.579 234.546 95.7764 236.311 93.0714C238.102 90.3259 247.664 80.6365 247.664 80.6365L240.314 70.1767L231.708 84.4022Z" fill="#9E616A"/>
<path d="M238.655 51.7468C246.053 51.7468 252.051 45.7514 252.051 38.3558C252.051 30.9601 246.053 24.9648 238.655 24.9648C231.257 24.9648 225.26 30.9601 225.26 38.3558C225.26 45.7514 231.257 51.7468 238.655 51.7468Z" fill="#9E616A"/>
<path d="M260.11 64.1214C258.531 60.9807 257.764 57.1008 254.399 56.0827C252.127 55.3951 242.935 56.4255 240.864 57.5861C237.419 59.5167 240.541 63.1343 238.508 66.5197C236.299 70.1999 230.294 77.5856 228.084 81.2658C226.565 83.7958 231.682 91.2221 230.861 94.0563C230.039 96.8905 230 100.072 231.399 102.67C232.651 104.995 230.839 107.053 232.099 109.374C233.408 111.789 235.016 120.817 233.797 123.278L232.981 125.726C241.079 126.201 247.887 116.53 255.935 115.511C257.934 115.258 260.009 114.928 261.656 113.768C264.083 112.059 265.042 108.959 265.641 106.054C268.526 91.8506 266.579 77.0912 260.11 64.1214V64.1214Z" fill="#3F3D56"/>
<path d="M272.251 97.2833C271.123 94.2056 269.081 80.749 269.081 80.749L256.3 80.3743L262.549 95.781L245.498 119.644C245.498 119.644 245.529 119.696 245.587 119.79C244.69 119.646 243.771 119.776 242.95 120.163C242.128 120.55 241.443 121.176 240.983 121.958C240.524 122.741 240.311 123.644 240.373 124.55C240.436 125.455 240.77 126.321 241.332 127.033C241.895 127.746 242.659 128.272 243.526 128.543C244.393 128.814 245.321 128.817 246.189 128.552C247.058 128.287 247.826 127.766 248.393 127.057C248.96 126.349 249.3 125.485 249.369 124.58C249.432 124.616 249.505 124.629 249.576 124.617C249.648 124.605 249.712 124.568 249.76 124.513C251.657 122.133 273.379 100.361 272.251 97.2833Z" fill="#9E616A"/>
<path d="M273.55 88.785C272.377 83.8353 271.196 78.8588 269.218 74.1721C267.24 69.4854 264.409 65.0588 260.426 61.8925C259.153 60.8802 257.73 59.9867 256.134 59.672C254.538 59.3573 252.739 59.7095 251.618 60.8881C249.824 62.774 250.364 65.8011 251.022 68.3189C252.962 75.7426 254.902 83.1663 256.841 90.59C262.443 89.9965 268.045 89.4029 273.647 88.8093L273.55 88.785Z" fill="#3F3D56"/>
<path d="M255.069 40.2132C254.576 36.9737 254.06 33.7072 252.901 30.6569C251.743 27.6067 249.874 24.7497 247.195 23.0218C242.952 20.286 237.459 20.8137 232.702 22.3873C229.023 23.6043 225.432 25.4541 222.837 28.4278C220.243 31.4016 218.786 35.6449 219.751 39.5333C224.825 38.3348 229.9 37.1363 234.974 35.9378L234.418 36.3302C236.084 37.1607 237.539 38.3598 238.673 39.8364C239.806 41.3129 240.588 43.0282 240.959 44.8521C241.322 46.698 241.27 48.6015 240.807 50.4249C240.343 52.2483 239.48 53.9459 238.28 55.395C241.741 54.1677 245.202 52.9405 248.662 51.7133C250.798 50.9558 253.085 50.083 254.351 48.14C255.82 45.8873 255.479 42.9015 255.069 40.2132Z" fill="#2F2E41"/>
</g>
<defs>
<clipPath id="clip0">
<rect width="352" height="263" fill="white"/>
</clipPath>
</defs>
</svg>
